<svg xmlns="http://www.w3.org/2000/svg" width="230" height="25" viewBox="0 0 230 25" fill="none"><path d="M3.376 24V20.128H14.672V24H3.376ZM3.376 5.472V1.6H14.672V5.472H3.376ZM3.376 14.016V10.208H14.032V14.016H3.376ZM0.432 1.6H4.848V24H0.432V1.6ZM24.526 18.912L25.07 15.296H35.822L36.366 18.912H24.526ZM30.382 8.864L27.022 16.576L27.118 17.6L24.174 24H19.022L30.382 0.287998L41.742 24H36.558L33.678 17.792L33.742 16.64L30.382 8.864ZM51.5 13.568H56.332L63.628 24H58.22L51.5 13.568ZM46.412 1.6H50.988V24H46.412V1.6ZM49.196 5.504V1.6H53.932C55.7027 1.6 57.2067 1.89867 58.444 2.496C59.6813 3.09333 60.6307 3.92533 61.292 4.992C61.9533 6.05867 62.284 7.30667 62.284 8.736C62.284 10.144 61.9533 11.392 61.292 12.48C60.6307 13.5467 59.6813 14.3787 58.444 14.976C57.2067 15.5733 55.7027 15.872 53.932 15.872H49.196V12.224H53.644C54.4547 12.224 55.148 12.096 55.724 11.84C56.3213 11.5627 56.78 11.1787 57.1 10.688C57.42 10.176 57.58 9.568 57.58 8.864C57.58 8.16 57.42 7.56267 57.1 7.072C56.78 6.56 56.3213 6.176 55.724 5.92C55.148 5.64267 54.4547 5.504 53.644 5.504H49.196ZM66.2558 5.728V1.6H82.8958V5.728H76.8478V24H72.2718V5.728H66.2558ZM89.2397 14.144V10.016H105.688V14.144H89.2397ZM102.776 1.6H107.352V24H102.776V1.6ZM87.7357 1.6H92.3117V24H87.7357V1.6ZM128.199 16.48C128.668 17.312 129.18 18.0373 129.735 18.656C130.311 19.2747 130.94 19.7547 131.623 20.096C132.306 20.4373 133.042 20.608 133.831 20.608C134.748 20.608 135.495 20.3733 136.071 19.904C136.647 19.4347 136.935 18.7947 136.935 17.984C136.935 17.28 136.754 16.7147 136.391 16.288C136.05 15.8613 135.527 15.488 134.823 15.168C134.14 14.8267 133.298 14.464 132.295 14.08C131.762 13.888 131.143 13.632 130.439 13.312C129.756 12.9707 129.106 12.544 128.487 12.032C127.868 11.4987 127.356 10.8587 126.951 10.112C126.546 9.344 126.343 8.42667 126.343 7.36C126.343 6.08 126.663 4.98133 127.303 4.064C127.964 3.12533 128.85 2.41066 129.959 1.92C131.09 1.408 132.348 1.152 133.735 1.152C135.164 1.152 136.391 1.39733 137.415 1.888C138.46 2.35733 139.324 2.96533 140.007 3.712C140.711 4.43733 141.255 5.19467 141.639 5.984L138.055 7.968C137.756 7.43467 137.394 6.95467 136.967 6.528C136.562 6.08 136.092 5.728 135.559 5.472C135.026 5.19467 134.418 5.056 133.735 5.056C132.839 5.056 132.167 5.26933 131.719 5.696C131.271 6.10133 131.047 6.58133 131.047 7.136C131.047 7.69067 131.228 8.18133 131.591 8.608C131.954 9.01333 132.508 9.408 133.255 9.792C134.002 10.1547 134.94 10.528 136.071 10.912C136.796 11.168 137.49 11.488 138.151 11.872C138.834 12.256 139.442 12.7253 139.975 13.28C140.53 13.8133 140.956 14.4533 141.255 15.2C141.575 15.9253 141.735 16.768 141.735 17.728C141.735 18.816 141.522 19.7867 141.095 20.64C140.668 21.4933 140.082 22.2187 139.335 22.816C138.588 23.392 137.746 23.8293 136.807 24.128C135.89 24.448 134.919 24.608 133.895 24.608C132.53 24.608 131.25 24.352 130.055 23.84C128.882 23.3067 127.858 22.592 126.983 21.696C126.108 20.8 125.426 19.8293 124.935 18.784L128.199 16.48ZM145.466 5.728V1.6H162.106V5.728H156.058V24H151.482V5.728H145.466ZM168.904 12.8C168.904 14.2293 169.203 15.4987 169.8 16.608C170.397 17.7173 171.219 18.592 172.264 19.232C173.309 19.872 174.525 20.192 175.912 20.192C177.299 20.192 178.515 19.872 179.56 19.232C180.605 18.592 181.416 17.7173 181.992 16.608C182.589 15.4987 182.888 14.2293 182.888 12.8C182.888 11.3707 182.6 10.1013 182.024 8.992C181.448 7.88267 180.637 7.008 179.592 6.368C178.547 5.728 177.32 5.408 175.912 5.408C174.525 5.408 173.309 5.728 172.264 6.368C171.219 7.008 170.397 7.88267 169.8 8.992C169.203 10.1013 168.904 11.3707 168.904 12.8ZM164.072 12.8C164.072 11.0933 164.371 9.536 164.968 8.128C165.565 6.69867 166.397 5.46133 167.464 4.416C168.531 3.37067 169.779 2.57067 171.208 2.016C172.659 1.44 174.227 1.152 175.912 1.152C177.619 1.152 179.187 1.44 180.616 2.016C182.045 2.57067 183.293 3.37067 184.36 4.416C185.448 5.46133 186.28 6.69867 186.856 8.128C187.453 9.536 187.752 11.0933 187.752 12.8C187.752 14.4853 187.453 16.0533 186.856 17.504C186.28 18.9333 185.459 20.1813 184.392 21.248C183.347 22.3147 182.099 23.1467 180.648 23.744C179.219 24.32 177.64 24.608 175.912 24.608C174.184 24.608 172.595 24.32 171.144 23.744C169.715 23.1467 168.467 22.3147 167.4 21.248C166.333 20.1813 165.512 18.9333 164.936 17.504C164.36 16.0533 164.072 14.4853 164.072 12.8ZM198.618 13.568H203.45L210.746 24H205.338L198.618 13.568ZM193.53 1.6H198.106V24H193.53V1.6ZM196.314 5.504V1.6H201.05C202.82 1.6 204.324 1.89867 205.562 2.496C206.799 3.09333 207.748 3.92533 208.41 4.992C209.071 6.05867 209.402 7.30667 209.402 8.736C209.402 10.144 209.071 11.392 208.41 12.48C207.748 13.5467 206.799 14.3787 205.562 14.976C204.324 15.5733 202.82 15.872 201.05 15.872H196.314V12.224H200.762C201.572 12.224 202.266 12.096 202.842 11.84C203.439 11.5627 203.898 11.1787 204.218 10.688C204.538 10.176 204.698 9.568 204.698 8.864C204.698 8.16 204.538 7.56267 204.218 7.072C203.898 6.56 203.439 6.176 202.842 5.92C202.266 5.64267 201.572 5.504 200.762 5.504H196.314ZM218.557 24V20.128H229.853V24H218.557ZM218.557 5.472V1.6H229.853V5.472H218.557ZM218.557 14.016V10.208H229.213V14.016H218.557ZM215.613 1.6H220.029V24H215.613V1.6Z" fill="black"></path></svg>